<mxfile host="app.diagrams.net" modified="2024-01-29T04:13:03.668Z" agent="Mozilla/5.0 (Windows NT 10.0; Win64; x64) AppleWebKit/537.36 (KHTML, like Gecko) Chrome/121.0.0.0 Safari/537.36 Edg/121.0.0.0" version="23.0.2" etag="qWZeAlehrs-0H2HVuW86" type="github">
  <diagram name="Page-1" id="gKOF7FLJDJtP4JvLzkoT">
    <mxGraphModel>
      <root>
        <mxCell id="0" />
        <mxCell id="1" parent="0" />
      </root>
    </mxGraphModel>
  </diagram>
</mxfile>
